<?xml version="1.0" encoding="utf-8"?>
<!-- Generator: Adobe Illustrator 22.1.0, SVG Export Plug-In . SVG Version: 6.00 Build 0)  -->
<svg version="1.1" id="Capa_1" xmlns="http://www.w3.org/2000/svg" xmlns:xlink="http://www.w3.org/1999/xlink" x="0px" y="0px"
	 viewBox="0 0 162.9 162.9" style="enable-background:new 0 0 162.9 162.9;" xml:space="preserve">
<style type="text/css">
	.st0{fill:#F7B647;}
	.st1{fill:#FDCB5D;}
	.st2{fill:#FFE27B;}
	.st3{fill:#F29A21;}
</style>
	<circle class="st0" cx="81.5" cy="81.5" r="81.5"/>
	<path class="st1" d="M81.5,0C36.1,0,0,36.1,0,81.5s36.1,81.5,81.5,81.5s81.5-36.1,81.5-81.5S126.8,0,81.5,0z M81.5,139.6
		c-32.6,0-58.2-25.6-58.2-58.2s25.6-58.2,58.2-58.2s58.2,25.6,58.2,58.2S114,139.6,81.5,139.6z"/>
	<path class="st0" d="M81.5,161.7L81.5,161.7c45.4,1.2,81.5-36.1,81.5-80.3h-1.2c-5.8,0-10.5,4.7-11.6,10.5
		c-2.3,16.3-10.5,31.4-22.1,41.9c-9.3,9.3-22.1,15.1-36.1,17.5C86.1,151.3,81.5,155.9,81.5,161.7z"/>
	<path class="st2" d="M81.5,1.2L81.5,1.2C36.1,0,0,37.2,0,81.5h1.2c5.8,0,10.5-4.7,11.6-10.5c2.3-16.3,10.5-31.4,22.1-41.9
		C44.2,19.8,57,14,71,11.6C76.8,11.6,81.5,7,81.5,1.2z"/>
	<path class="st3" d="M31.4,89.6C31.4,57,57,31.4,89.6,31.4c14,0,26.8,4.7,37.2,14c-11.6-14-26.8-22.1-45.4-22.1
		c-32.6,0-58.2,25.6-58.2,58.2c0,18.6,8.1,33.7,20.9,44.2C36.1,116.4,31.4,103.6,31.4,89.6z"/>
	<path class="st1" d="M116.4,117.5c-1.2,0-2.3,0-3.5-1.2c-2.3-2.3-2.3-5.8,0-8.1c7-7,10.5-17.5,10.5-26.8c0-3.5,2.3-5.8,5.8-5.8
		s5.8,2.3,5.8,5.8c0,12.8-4.7,25.6-12.8,34.9C119.9,117.5,117.5,117.5,116.4,117.5z"/>
	<path class="st3" d="M81.5,116.4c-7,0-11.6-4.7-11.6-11.6V58.2c0-7,4.7-11.6,11.6-11.6c7,0,11.6,4.7,11.6,11.6v46.5
		C93.1,111.7,88.4,116.4,81.5,116.4z"/>
</svg>
