<?xml version="1.0" encoding="utf-8"?>
<!-- Generator: Adobe Illustrator 22.1.0, SVG Export Plug-In . SVG Version: 6.00 Build 0)  -->
<svg version="1.1" id="Capa_1" xmlns="http://www.w3.org/2000/svg" xmlns:xlink="http://www.w3.org/1999/xlink" x="0px" y="0px"
	 viewBox="0 0 512 302.5" style="enable-background:new 0 0 512 302.5;" xml:space="preserve">
<style type="text/css">
	.st0{fill:#0E9347;}
	.st1{fill:#3BB54A;}
	.st2{fill:#89C763;}
</style>
	<path class="st0" d="M488.7,302.5H23.3C10.5,302.5,0,292.1,0,279.3v-256C0,10.5,10.5,0,23.3,0h465.5C501.5,0,512,10.5,512,23.3v256
		C512,292.1,501.5,302.5,488.7,302.5z"/>
	<path class="st1" d="M442.2,279.3H69.8c0-25.6-20.9-46.5-46.5-46.5V69.8c25.6,0,46.5-20.9,46.5-46.5h372.4
		c0,25.6,20.9,46.5,46.5,46.5v162.9C463.1,232.7,442.2,253.7,442.2,279.3z"/>
	<ellipse class="st0" cx="256" cy="151.3" rx="93.1" ry="104.7"/>
	<circle class="st0" cx="116.4" cy="151.3" r="23.3"/>
	<circle class="st0" cx="395.6" cy="151.3" r="23.3"/>
	<path class="st2" d="M267.6,139.6h-23.3c-7,0-11.6-4.7-11.6-11.6c0-7,4.7-11.6,11.6-11.6h34.9c7,0,11.6-4.7,11.6-11.6
		c0-7-4.7-11.6-11.6-11.6h-11.6c0-7-4.7-11.6-11.6-11.6c-7,0-11.6,4.7-11.6,11.6c-19.8,0-34.9,15.1-34.9,34.9s15.1,34.9,34.9,34.9
		h23.3c7,0,11.6,4.7,11.6,11.6c0,7-4.7,11.6-11.6,11.6h-34.9c-7,0-11.6,4.7-11.6,11.6c0,7,4.7,11.6,11.6,11.6h11.6
		c0,7,4.7,11.6,11.6,11.6c7,0,11.6-4.7,11.6-11.6c19.8,0,34.9-15.1,34.9-34.9S287.4,139.6,267.6,139.6z"/>
</svg>
